<svg xmlns="http://www.w3.org/2000/svg" viewBox="0 0 1600 900">
  <defs>
    <linearGradient id="felt" x1="0" x2="0" y1="0" y2="1">
      <stop offset="0%" stop-color="#0f6e47"/>
      <stop offset="100%" stop-color="#08422b"/>
    </linearGradient>
    <linearGradient id="rail" x1="0" x2="0" y1="0" y2="1">
      <stop offset="0%" stop-color="#7d4f2a"/>
      <stop offset="100%" stop-color="#4e2e16"/>
    </linearGradient>
  </defs>
  <rect width="1600" height="900" rx="46" fill="url(#rail)"/>
  <rect x="28" y="28" width="1544" height="844" rx="34" fill="url(#felt)" stroke="#d6c08a" stroke-width="6"/>
  <rect x="96" y="100" width="1408" height="230" rx="24" fill="none" stroke="#efe6bd" stroke-width="4"/>
  <rect x="170" y="382" width="1260" height="128" rx="22" fill="none" stroke="#efe6bd" stroke-width="4"/>
  <rect x="170" y="520" width="1260" height="118" rx="20" fill="none" stroke="#efe6bd" stroke-width="4"/>
  <rect x="104" y="676" width="1392" height="134" rx="24" fill="none" stroke="#efe6bd" stroke-width="4"/>
  <rect x="170" y="62" width="1260" height="52" rx="12" fill="none" stroke="#efe6bd" stroke-width="3"/>
  <text x="800" y="88" fill="#f5d979" font-size="34" text-anchor="middle" font-family="Georgia, serif">LAS VEGAS STYLE CRAPS</text>
  <g fill="#f6e8b8" font-family="Georgia, serif">
    <text x="800" y="460" font-size="58" text-anchor="middle">COME</text>
    <text x="800" y="595" font-size="46" text-anchor="middle">FIELD    2   3   4    9   10   11   12</text>
    <text x="800" y="770" font-size="64" text-anchor="middle">PASS LINE</text>
    <text x="260" y="730" font-size="34">DONT PASS BAR</text>
    <text x="800" y="150" font-size="80" text-anchor="middle">4   5   6   8   9   10</text>
  </g>
  <g fill="#f5d979" font-family="Georgia, serif">
    <text x="212" y="200" font-size="28">BUY</text>
    <text x="212" y="240" font-size="28">LAY</text>
    <text x="1360" y="200" font-size="28" text-anchor="end">ODDS</text>
    <text x="1360" y="240" font-size="28" text-anchor="end">PLACE</text>
  </g>
  <g stroke="#efe6bd" stroke-width="4" fill="none">
    <line x1="330" y1="100" x2="330" y2="330"/>
    <line x1="530" y1="100" x2="530" y2="330"/>
    <line x1="730" y1="100" x2="730" y2="330"/>
    <line x1="870" y1="100" x2="870" y2="330"/>
    <line x1="1070" y1="100" x2="1070" y2="330"/>
    <line x1="1270" y1="100" x2="1270" y2="330"/>
    <line x1="330" y1="382" x2="330" y2="638"/>
    <line x1="530" y1="382" x2="530" y2="638"/>
    <line x1="730" y1="382" x2="730" y2="638"/>
    <line x1="870" y1="382" x2="870" y2="638"/>
    <line x1="1070" y1="382" x2="1070" y2="638"/>
    <line x1="1270" y1="382" x2="1270" y2="638"/>
  </g>
  <g fill="#f6e8b8" font-family="Georgia, serif" font-size="28">
    <text x="246" y="366" text-anchor="middle">DONT COME</text>
    <text x="430" y="366" text-anchor="middle">4</text>
    <text x="630" y="366" text-anchor="middle">5</text>
    <text x="800" y="366" text-anchor="middle">6</text>
    <text x="940" y="366" text-anchor="middle">8</text>
    <text x="1140" y="366" text-anchor="middle">9</text>
    <text x="1340" y="366" text-anchor="middle">10</text>
  </g>
  <g fill="#f5d979" font-family="Georgia, serif" font-size="30">
    <text x="270" y="280">HARD 4</text>
    <text x="610" y="280">HARD 6</text>
    <text x="910" y="280">HARD 8</text>
    <text x="1240" y="280">HARD 10</text>
    <text x="245" y="160">CRAPS 2</text>
    <text x="245" y="315">CRAPS 3</text>
    <text x="1345" y="160" text-anchor="end">YO 11</text>
    <text x="1345" y="315" text-anchor="end">CRAPS 12</text>
    <text x="800" y="256" text-anchor="middle">HORN</text>
    <text x="800" y="206" text-anchor="middle">ANY CRAPS</text>
    <text x="800" y="306" text-anchor="middle">ANY SEVEN</text>
    <text x="800" y="346" text-anchor="middle">C AND E</text>
  </g>
</svg>
