<svg xmlns="http://www.w3.org/2000/svg" viewBox="0 0 1600 1000" role="img" aria-label="Easy rail table">
  <defs>
    <linearGradient id="felt" x1="0" x2="1" y1="0" y2="1">
      <stop offset="0" stop-color="#116b43"/>
      <stop offset="1" stop-color="#08331f"/>
    </linearGradient>
  </defs>
  <rect width="1600" height="1000" fill="url(#felt)"/>
  <g fill="none" stroke="#efe6bd" stroke-width="4">
    <rect x="58" y="108" width="370" height="760" rx="22"/>
    <rect x="510" y="108" width="980" height="168"/>
    <rect x="510" y="276" width="980" height="256"/>
    <rect x="510" y="532" width="980" height="190"/>
    <path d="M510 722h760v102H510z"/>
  </g>
  <g stroke="#efe6bd" stroke-width="3">
    <line x1="608" y1="108" x2="608" y2="276"/>
    <line x1="706" y1="108" x2="706" y2="276"/>
    <line x1="804" y1="108" x2="804" y2="276"/>
    <line x1="902" y1="108" x2="902" y2="276"/>
    <line x1="1000" y1="108" x2="1000" y2="276"/>
    <line x1="1098" y1="108" x2="1098" y2="276"/>
    <line x1="1196" y1="108" x2="1196" y2="276"/>
    <line x1="1294" y1="108" x2="1294" y2="276"/>
    <line x1="1392" y1="108" x2="1392" y2="276"/>
    <line x1="58" y1="218" x2="428" y2="218"/>
    <line x1="58" y1="430" x2="428" y2="430"/>
    <line x1="58" y1="650" x2="428" y2="650"/>
  </g>
  <g fill="#ffcf54" font-family="Georgia, serif" text-anchor="middle">
    <text x="559" y="214" font-size="52">2</text>
    <text x="657" y="214" font-size="52">3</text>
    <text x="755" y="214" font-size="52">4</text>
    <text x="853" y="214" font-size="52">5</text>
    <text x="951" y="214" font-size="42">SIX</text>
    <text x="1049" y="214" font-size="52">8</text>
    <text x="1147" y="214" font-size="42">NINE</text>
    <text x="1245" y="214" font-size="52">10</text>
    <text x="1343" y="214" font-size="52">11</text>
    <text x="1441" y="214" font-size="52">12</text>
    <text x="1000" y="424" font-size="88" fill="#ff704b">COME</text>
    <text x="720" y="640" font-size="44">LOW FIELD</text>
    <text x="1000" y="640" font-size="62">FIELD</text>
    <text x="1298" y="640" font-size="44">HIGH FIELD</text>
    <text x="812" y="794" font-size="70" fill="#f7f0c6">PASS LINE</text>
    <text x="1460" y="92" font-size="28" fill="#ffcf54" text-anchor="end">EASY DRAGON</text>
  </g>
  <g fill="#f7f0c6" font-family="Georgia, serif" text-anchor="middle">
    <text x="243" y="162" font-size="28">HARDWAYS</text>
    <text x="243" y="326" font-size="40" fill="#ff704b">ANY SEVEN</text>
    <text x="243" y="540" font-size="38">HORN BET</text>
    <text x="243" y="782" font-size="48" fill="#ff704b">ANY DRAGON</text>
  </g>
</svg>
