<svg xmlns="http://www.w3.org/2000/svg" viewBox="0 0 1600 1000" role="img" aria-label="Regular rail table">
  <defs>
    <linearGradient id="felt" x1="0" x2="1" y1="0" y2="1">
      <stop offset="0" stop-color="#116944"/>
      <stop offset="1" stop-color="#07331f"/>
    </linearGradient>
  </defs>
  <rect width="1600" height="1000" fill="url(#felt)"/>
  <g fill="none" stroke="#efe6bd" stroke-width="4">
    <rect x="354" y="98" width="72" height="232"/>
    <rect x="430" y="98" width="72" height="232"/>
    <path d="M398 456l44 50l-44 50l-44-50z"/>
    <path d="M398 586l44 50l-44 50l-44-50z"/>
    <rect x="540" y="110" width="636" height="140"/>
    <rect x="540" y="340" width="770" height="100" rx="6"/>
    <rect x="540" y="490" width="770" height="100" rx="6"/>
    <rect x="540" y="620" width="770" height="100" rx="6"/>
  </g>
  <g stroke="#efe6bd" stroke-width="3">
    <line x1="646" y1="110" x2="646" y2="250"/>
    <line x1="752" y1="110" x2="752" y2="250"/>
    <line x1="858" y1="110" x2="858" y2="250"/>
    <line x1="964" y1="110" x2="964" y2="250"/>
    <line x1="1070" y1="110" x2="1070" y2="250"/>
  </g>
  <g fill="#f7f0c6" font-family="Georgia, serif" text-anchor="middle">
    <text x="390" y="216" font-size="22" transform="rotate(78 390 216)">Don't PASS BAR</text>
    <text x="466" y="216" font-size="20" transform="rotate(78 466 216)">Dont Come</text>
    <text x="925" y="408" font-size="68" fill="#ff704b">COME</text>
    <text x="925" y="548" font-size="46">FIELD 3 4 9 10 11</text>
    <text x="925" y="688" font-size="62">PASS LINE</text>
    <text x="398" y="514" font-size="24" fill="#ffcf54">BIG 6</text>
    <text x="398" y="644" font-size="24" fill="#ffcf54">BIG 8</text>
  </g>
  <g fill="#ffcf54" font-family="Georgia, serif" text-anchor="middle">
    <text x="593" y="196" font-size="50">4</text>
    <text x="699" y="196" font-size="50">5</text>
    <text x="805" y="196" font-size="38">SIX</text>
    <text x="911" y="196" font-size="50">8</text>
    <text x="1017" y="196" font-size="38">NINE</text>
    <text x="1123" y="196" font-size="50">10</text>
    <text x="1066" y="92" font-size="28" text-anchor="end">REGULAR</text>
  </g>
</svg>
