<svg xmlns="http://www.w3.org/2000/svg" viewBox="0 0 1600 1000" role="img" aria-label="Extended rail table">
  <defs>
    <linearGradient id="felt" x1="0" x2="1" y1="0" y2="1">
      <stop offset="0" stop-color="#0f6742"/>
      <stop offset="1" stop-color="#083420"/>
    </linearGradient>
  </defs>
  <rect width="1600" height="1000" fill="url(#felt)"/>
  <g fill="none" stroke="#efe6bd" stroke-width="4">
    <rect x="320" y="100" width="950" height="150"/>
    <rect x="320" y="340" width="920" height="100" rx="6"/>
    <rect x="320" y="490" width="920" height="100" rx="6"/>
    <rect x="320" y="620" width="920" height="100" rx="6"/>
  </g>
  <g stroke="#efe6bd" stroke-width="3">
    <line x1="415" y1="100" x2="415" y2="250"/>
    <line x1="510" y1="100" x2="510" y2="250"/>
    <line x1="605" y1="100" x2="605" y2="250"/>
    <line x1="700" y1="100" x2="700" y2="250"/>
    <line x1="795" y1="100" x2="795" y2="250"/>
    <line x1="890" y1="100" x2="890" y2="250"/>
    <line x1="985" y1="100" x2="985" y2="250"/>
    <line x1="1080" y1="100" x2="1080" y2="250"/>
    <line x1="1175" y1="100" x2="1175" y2="250"/>
  </g>
  <g fill="#ffcf54" font-family="Georgia, serif" text-anchor="middle">
    <text x="367" y="192" font-size="46">2</text>
    <text x="462" y="192" font-size="46">3</text>
    <text x="557" y="192" font-size="46">4</text>
    <text x="652" y="192" font-size="46">5</text>
    <text x="747" y="192" font-size="36">SIX</text>
    <text x="842" y="192" font-size="46">8</text>
    <text x="937" y="192" font-size="36">NINE</text>
    <text x="1032" y="192" font-size="46">10</text>
    <text x="1127" y="192" font-size="46">11</text>
    <text x="1222" y="192" font-size="46">12</text>
    <text x="780" y="408" font-size="68" fill="#ff704b">COME</text>
    <text x="780" y="548" font-size="46">FIELD 3 4 9 10 11</text>
    <text x="780" y="688" font-size="62" fill="#f7f0c6">PASS LINE</text>
    <text x="1246" y="76" font-size="28" fill="#ffcf54" text-anchor="end">CRAPLESS</text>
  </g>
</svg>
